# xmcd CD Database Entry
#
# Track frame offsets:
# 150
# 23327
# 40495
# 61996
# 75017
# 91582
# 121793
# 139627
# 162150
# 182710
# 201502
# 232785
#
# Disc length: 3612 seconds
#
# Revision: 3
# Processed by: cddbd v1.5PL3 Copyright (c) Steve Scherf et al.
# Submitted via: tcd 2.0b
#
DISCID=820e1a0c
DTITLE=Various Artist - I Still Love The Game
DYEAR=1999
DGENRE=
TTITLE0=Mariah Carey - Make It Happen
TTITLE1=Will Smith - Gettin' Jiggy Wit It
TTITLE2=Sly and The Family Stone - Thank You
TTITLE3=Tony Bennet - Steppin' Out With My Baby
TTITLE4=The Emotions - Best Of My Love
TTITLE5=Luther Vandross - Power Of Love/Love Power
TTITLE6=Kenny Lattimore - For You
TTITLE7=Tatyana Ali - Daydreamin'
TTITLE8=Jon B. - They Don't Know
TTITLE9=Cyndi Lauper and Rob Hyman - Time After Time
TTITLE10=Erick Benzi and Nikki Matheson - A Rose in the Wind
TTITLE11=Data Track 12
EXTD=YEAR: 1999
EXTT0=
EXTT1=
EXTT2=
EXTT3=
EXTT4=
EXTT5=
EXTT6=
EXTT7=
EXTT8=
EXTT9=
EXTT10=
EXTT11=
PLAYORDER=
